<?xml version="1.0" standalone="no"?><!DOCTYPE svg PUBLIC "-//W3C//DTD SVG 1.1//EN" "http://www.w3.org/Graphics/SVG/1.1/DTD/svg11.dtd"><svg t="1560508299852" class="icon" style="" viewBox="0 0 1024 1024" version="1.1" xmlns="http://www.w3.org/2000/svg" p-id="4380" xmlns:xlink="http://www.w3.org/1999/xlink" width="200" height="200"><defs><style type="text/css"></style></defs><path d="M512 549.376l154.112 154.112c5.12 5.12 11.8784 7.6288 18.6368 7.6288a26.2656 26.2656 0 0 0 18.688-45.056l-154.112-154.0096 154.112-154.112a26.4192 26.4192 0 0 0-37.376-37.3248L512 474.7264l-154.112-154.112a26.4192 26.4192 0 0 0-37.3248 37.376L474.624 512 320.512 666.112a26.4192 26.4192 0 0 0 37.376 37.376L512 549.376zM512 1024C229.7344 1024 0 794.2656 0 512S229.7344 0 512 0s512 229.6832 512 512-229.7344 512-512 512zM52.7872 512c0 253.184 206.0288 459.1616 459.2128 459.1616 253.184 0 459.2128-205.9776 459.2128-459.2128 0-253.184-206.0288-459.1616-459.2128-459.1616-253.184 0-459.2128 205.9776-459.2128 459.1616z" p-id="4381" fill="#ffffff"></path></svg>