<svg id="图层_1" data-name="图层 1" xmlns="http://www.w3.org/2000/svg" viewBox="0 0 576 674.16"><defs><style>.cls-1{fill:#b0adcb;}</style></defs><title>kong</title><path class="cls-1" d="M416.2,401.08a19.74,19.74,0,0,0,.4,15.52c2.32,4.88,7.92,8.56,13,10.24l30.4,9v82.48c0,4.88,1.68,9,6.32,10.48l242.16,76.56a9.06,9.06,0,0,0,2.88.48,10.49,10.49,0,0,0,7.28-2.88l134.8-122.48a10.69,10.69,0,0,0,3.36-8.16V381.8l33.68,11.6a13.39,13.39,0,0,0,3.92.64,11.69,11.69,0,0,0,8.4-3.6c3.2-3.28,3.6-8,1.76-12.72l-2.85-6.09L894.45,356,884.58,335,874,312.44c-2.77-6.25-5.7-12.49-8.71-18.62-2.72-5.52-5.69-11.17-7.77-17-.17-.48-.33-1-.49-1.44a26.9,26.9,0,0,0-1.94-5.28c-1.64-2.91-4.55-4.75-7.41-6.29a57.65,57.65,0,0,0-10.15-4.37l-3.75-1.17-10.92-3.4-14.74-4.6-17.66-5.5-19.73-6.15-20.9-6.51-21.2-6.61L708,219.11l-19.17-6L672,207.89l-13.63-4.25-9.53-3-4.57-1.43-.27-.08a11.7,11.7,0,0,0-9.12.88L479.16,281.72C467,288.12,462,292.68,460,296M474,440.2,656.2,498.12a16,16,0,0,0,5.12.88,19.06,19.06,0,0,0,18.24-14l19-67,5.52,171.12L474,516.12Zm369,30.88L716.28,586l-5.6-221.52,132.16-83.36v190ZM856.84,367V307.32l33,71.2ZM640.68,212.84,831.16,272.2l-128.56,81c-8.48-2-37.6-9.6-74.88-19.36L485.4,294.12c.08,0,.16-.08.24-.08ZM474,306.84c69.6,19.84,124,33.28,158.56,42.32l61.2,17.28a4.7,4.7,0,0,1,3,2.56,5.35,5.35,0,0,1,.32,4.16L666,481.08a5.43,5.43,0,0,1-6.88,3.68l-226.4-71.44a5.56,5.56,0,0,1-3.28-2.88,4.65,4.65,0,0,1-.24-4.24h0l39.44-99M395,668.12h66.48v4H395Zm106.48,0H632v4H501.48Zm170.72-.56H899.88v4H672.2ZM562,717.16H692.28v4H562Zm162.4-.16h33v4.16h-33ZM936.2,668H971v4H936.2Zm0,0" transform="translate(-395 -47)"/><path class="cls-1" d="M398.76,222.52a6.4,6.4,0,1,0,6.4-6.4,6.4,6.4,0,0,0-6.4,6.4Zm0,0" transform="translate(-395 -47)"/><path class="cls-1" d="M463.56,172.12a15,15,0,1,1,15-15,15,15,0,0,1-15,15Zm0-25a10.16,10.16,0,1,0,10.16,10.16,10.17,10.17,0,0,0-10.16-10.16Zm113.28-40.8a5.36,5.36,0,0,1-5.36-5.36V52.36a5.36,5.36,0,1,1,10.72,0v48.56a5.36,5.36,0,0,1-5.36,5.36Zm32.56,34.64h-2.16a4.27,4.27,0,0,1-4.24-4.24v-29a4.27,4.27,0,0,1,4.24-4.24h2.16a4.27,4.27,0,0,1,4.24,4.24v29a4.27,4.27,0,0,1-4.24,4.24Zm290-24.8H876.2a.8.8,0,0,1-.8-.8v-1.2a.8.8,0,0,1,.8-.8h23.2a.8.8,0,0,1,.8.8v1.2a.8.8,0,0,1-.8.8Zm0,0" transform="translate(-395 -47)"/><path class="cls-1" d="M888.2,126.12h-1.6a.8.8,0,0,1-.8-.8v-20.4a.8.8,0,0,1,.8-.8h1.6a.8.8,0,0,1,.8.8v20.4a.8.8,0,0,1-.8.8Zm-100-8,.4,19.6,14-10.4Zm125,78.8h-7.6a6.25,6.25,0,0,1-6.24-6.24v-6a6.25,6.25,0,0,1,6.24-6.24h7.6a6.25,6.25,0,0,1,6.24,6.24v6a6.35,6.35,0,0,1-6.24,6.24Zm0,0" transform="translate(-395 -47)"/></svg>