<?xml version="1.0" standalone="no"?><!DOCTYPE svg PUBLIC "-//W3C//DTD SVG 1.1//EN" "http://www.w3.org/Graphics/SVG/1.1/DTD/svg11.dtd"><svg t="1559033193342" class="icon" style="" viewBox="0 0 1024 1024" version="1.1" xmlns="http://www.w3.org/2000/svg" p-id="29566" xmlns:xlink="http://www.w3.org/1999/xlink" width="30" height="30"><defs><style type="text/css"></style></defs><path d="M544 62.72a416 416 0 1 0 0 832 416 416 0 0 0 0-832z m0 768a352 352 0 1 1 0-704 352 352 0 1 1 0 704z" fill="#040000" p-id="29567"></path><path d="M736 512H576V265.664c0-17.6-14.4-32-32-32s-32 14.4-32 32V544c0 17.6 14.4 32 32 32h192c17.6 0 32-14.4 32-32s-14.4-32-32-32z" fill="#040000" p-id="29568"></path></svg>