<?xml version="1.0" standalone="no"?><!DOCTYPE svg PUBLIC "-//W3C//DTD SVG 1.1//EN" "http://www.w3.org/Graphics/SVG/1.1/DTD/svg11.dtd"><svg t="1559033253182" class="icon" style="" viewBox="0 0 1024 1024" version="1.1" xmlns="http://www.w3.org/2000/svg" p-id="30707" xmlns:xlink="http://www.w3.org/1999/xlink" width="30" height="30"><defs><style type="text/css"></style></defs><path d="M849.066667 170.666667H174.933333C125.866667 170.666667 85.333333 206.933333 85.333333 251.733333v522.666667c0 42.666667 40.533333 78.933333 89.6 78.933333h674.133334c49.066667 0 89.6-36.266667 89.6-81.066666V251.733333C938.666667 206.933333 898.133333 170.666667 849.066667 170.666667zM174.933333 234.666667h674.133334c14.933333 0 25.6 10.666667 25.6 17.066666v51.2H149.333333v-51.2c0-6.4 10.666667-17.066667 25.6-17.066666z m674.133334 554.666666H174.933333c-14.933333 0-25.6-10.666667-25.6-17.066666V364.8h725.333334v407.466667c0 6.4-10.666667 17.066667-25.6 17.066666z" p-id="30708"></path><path d="M608 561.066667c17.066667 0 32-14.933333 32-32s-14.933333-32-32-32h-19.2l36.266667-36.266667c12.8-12.8 12.8-32 0-44.8s-32-12.8-44.8 0L512 482.133333l-68.266667-68.266666c-12.8-12.8-32-12.8-44.8 0s-12.8 32 0 44.8l36.266667 36.266666h-19.2c-17.066667 0-32 14.933333-32 32s14.933333 32 32 32h64V597.333333h-64c-17.066667 0-32 14.933333-32 32s14.933333 32 32 32h64v38.4c0 17.066667 14.933333 32 32 32s32-14.933333 32-32V661.333333h64c17.066667 0 32-14.933333 32-32s-14.933333-32-32-32h-64v-38.4h64z" p-id="30709"></path></svg>