<?xml version="1.0" standalone="no"?><!DOCTYPE svg PUBLIC "-//W3C//DTD SVG 1.1//EN" "http://www.w3.org/Graphics/SVG/1.1/DTD/svg11.dtd"><svg t="1559033156647" class="icon" style="" viewBox="0 0 1024 1024" version="1.1" xmlns="http://www.w3.org/2000/svg" p-id="29350" xmlns:xlink="http://www.w3.org/1999/xlink" width="30" height="30"><defs><style type="text/css"></style></defs><path d="M938.981581 789.504c8.6016-16.9984 17.2032-29.696 25.6-46.8992a15.36 15.36 0 0 0 4.3008-12.6976c4.3008-12.9024 12.9024-25.6 17.2032-38.5024 4.096-4.3008 4.096-8.3968 4.096-16.9984a291.6352 291.6352 0 0 1 13.5168-34.2016c0-4.3008 4.3008-12.6976 4.3008-16.9984 4.3008-12.9024 4.3008-25.6 8.3968-38.5024 0-4.096 4.3008-12.6976 4.3008-16.9984A240.8448 240.8448 0 0 0 1024.178381 512a512 512 0 0 0-1024 0 240.8448 240.8448 0 0 0 4.3008 55.5008 24.9856 24.9856 0 0 0 4.3008 16.9984c0 12.9024 4.3008 25.6 4.3008 38.5024 0 4.3008 4.096 12.6976 4.096 16.9984a291.6352 291.6352 0 0 0 12.9024 34.2016c0 4.3008 4.3008 8.6016 4.3008 16.9984a150.7328 150.7328 0 0 0 16.9984 38.5024c0 4.3008 4.3008 8.3968 4.3008 12.6976 8.6016 17.2032 16.9984 29.9008 25.6 46.8992A505.2416 505.2416 0 0 0 508.082381 1024a518.3488 518.3488 0 0 0 430.08-234.7008z m-430.08-545.9968a187.8016 187.8016 0 1 1-187.5968 187.5968 189.44 189.44 0 0 1 186.7776-187.5968zM196.581581 832.3072a339.3536 339.3536 0 0 1 623.0016 0 457.3184 457.3184 0 0 1-311.5008 128 478.4128 478.4128 0 0 1-311.5008-128z" p-id="29351"></path></svg>